<svg width="85" height="14" viewBox="0 0 85 14" fill="none" xmlns="http://www.w3.org/2000/svg">
<g clip-path="url(#clip0_0_990)">
<path d="M73.0092 2H67.02V7.99904V14H78.9965V7.99904C78.9965 6.40799 78.3657 4.88212 77.2429 3.75708C76.1201 2.63204 74.5972 2 73.0092 2Z" fill="white"/>
<path d="M8.06623 13.7289H6.01878V6.68416C6.01878 5.90997 6.01878 5.45898 6 4.72049H7.89154V5.66005H7.90844C8.2691 5.06249 9.19326 4.44238 10.4668 4.44238C12.6627 4.44238 14.3382 5.88366 14.3382 8.78501V13.7289H12.2851V8.76434C12.2851 7.28548 11.6014 6.29519 10.1775 6.29519C8.75372 6.29519 8.06623 7.27796 8.06623 8.76434V13.7289Z" fill="white"/>
<path d="M24.9455 11.0437C24.4046 12.7349 22.8925 13.9995 20.5332 13.9995C17.8866 13.9995 15.9556 12.1073 15.9556 9.18902C15.9556 6.30646 17.9579 4.44238 20.4975 4.44238C23.0371 4.44238 24.8554 6.28015 24.8554 9.16271V9.7396H18.0481C18.2096 11.3256 19.1751 12.2802 20.6421 12.2802C21.8124 12.2802 22.4604 11.7578 22.7309 11.0362L24.9455 11.0437ZM18.0481 8.17993H22.7178C22.5919 7.02616 21.8537 6.05278 20.4487 6.05278C19.1113 6.05278 18.2284 7.04495 18.0481 8.17993Z" fill="white"/>
<path d="M31.0503 13.9995C28.5483 13.9995 26.3862 12.3403 26.3862 9.22472C26.3862 6.10915 28.6196 4.44238 31.1235 4.44238C33.4095 4.44238 35.0494 5.82917 35.4269 7.63687H33.248C32.9963 6.89838 32.2938 6.30458 31.1235 6.30458C29.557 6.30458 28.4581 7.45648 28.4581 9.22284C28.4581 10.9892 29.557 12.1599 31.1047 12.1599C32.3295 12.1599 33.0865 11.5097 33.3194 10.7712H35.4908C35.1151 12.5752 33.3194 13.9995 31.0503 13.9995Z" fill="white"/>
<path d="M41.6575 13.8008C39.5518 13.8008 38.2013 12.7203 38.2013 10.2512V6.52302H36.3999V4.72095H38.2013V2H39.1405C39.4361 2 39.7196 2.11734 39.9288 2.32626C40.138 2.53518 40.2557 2.81861 40.2562 3.11431V4.72095H42.7583V6.52302H40.2544V10.1441C40.2544 11.5853 41.1184 11.9461 42.0539 11.9461C42.326 11.9472 42.5977 11.9227 42.8653 11.8728V13.6749C42.4685 13.7608 42.0635 13.803 41.6575 13.8008Z" fill="white"/>
<path d="M44.3417 9.24211C44.3417 6.42344 46.1243 4.45038 48.8987 4.45038C49.9787 4.45038 51.4382 5.08176 51.8158 5.96306H51.8327V4.72097H53.8144C53.7975 5.45946 53.7975 5.91045 53.7975 6.68464V13.7294H51.8158V12.4855H51.797C51.4213 13.3686 49.9975 14 48.8987 14C46.1243 14 44.3417 12.0721 44.3417 9.24211ZM51.797 9.24211C51.797 7.40434 50.608 6.34264 49.1147 6.34264C47.5838 6.34264 46.4304 7.40434 46.4304 9.24211C46.4304 11.0799 47.5838 12.1078 49.1147 12.1078C50.5366 12.1078 51.797 11.0799 51.797 9.24211Z" fill="white"/>
<path d="M61.1627 6.52299C59.4515 6.52299 58.4071 7.49449 58.4071 9.34166V13.7388H56.354V6.68459C56.354 5.9104 56.354 5.45941 56.3352 4.72092H58.3169V6.1979H58.3526C58.6945 5.18882 59.7032 4.45033 60.9823 4.45033C61.1752 4.44799 61.3679 4.45992 61.559 4.48603V6.52299H61.1627Z" fill="white"/>
</g>
<defs>
<clipPath id="clip0_0_990">
<rect width="85" height="14" fill="white"/>
</clipPath>
</defs>
</svg>
