<svg width="22" height="22" viewBox="0 0 22 22" fill="none" xmlns="http://www.w3.org/2000/svg">
<path d="M11 2C9.21997 2 7.47991 2.52784 5.99987 3.51677C4.51983 4.50571 3.36628 5.91131 2.68509 7.55585C2.0039 9.20038 1.82567 11.01 2.17294 12.7558C2.5202 14.5016 3.37737 16.1053 4.63604 17.364C5.89471 18.6226 7.49836 19.4798 9.24419 19.8271C10.99 20.1743 12.7996 19.9961 14.4442 19.3149C16.0887 18.6337 17.4943 17.4802 18.4832 16.0001C19.4722 14.5201 20 12.78 20 11C19.9972 8.6139 19.0481 6.32631 17.3609 4.63908C15.6737 2.95185 13.3861 2.00276 11 2ZM15.2864 9.42405L10.209 14.2702C10.0799 14.393 9.90852 14.4615 9.73032 14.4615C9.55213 14.4615 9.38075 14.393 9.25166 14.2702L6.71364 11.8471C6.58105 11.7201 6.50429 11.5457 6.50022 11.3621C6.49616 11.1785 6.56512 11.0009 6.69197 10.8681C6.81881 10.7353 6.99317 10.6584 7.17673 10.6541C7.36029 10.6498 7.53806 10.7185 7.67098 10.8452L9.73032 12.8119L14.329 8.4221C14.4619 8.29542 14.6397 8.22668 14.8233 8.23098C15.0068 8.23528 15.1812 8.31226 15.308 8.44502C15.4349 8.57777 15.5038 8.75545 15.4998 8.93902C15.4957 9.12259 15.419 9.29704 15.2864 9.42405Z" fill="#133EBF"/>
</svg>
